<svg xmlns="http://www.w3.org/2000/svg" version="1.1" xmlns:xlink="http://www.w3.org/1999/xlink" xmlns:svgjs="http://svgjs.com/svgjs" width="788.77" height="788.59"><svg xmlns="http://www.w3.org/2000/svg" xmlns:xlink="http://www.w3.org/1999/xlink" version="1.1" id="SvgjsSvg1000" x="0px" y="0px" enable-background="new 0 0 1024 1024" xml:space="preserve" viewBox="118.33 153.66 788.77 788.59">
<path fill="#000000" opacity="1.000000" stroke="none" d=" M839.840698,767.792297   C794.397705,833.565491 734.989685,881.563843 661.636780,912.351379   C629.523010,925.830078 596.146423,934.627136 561.631897,939.109436   C518.469360,944.714722 475.594452,942.774048 433.047150,933.740906   C373.763733,921.154480 320.072968,896.217957 272.003326,859.460754   C217.569931,817.837219 176.705124,765.354065 149.225418,702.596558   C134.310989,668.535400 125.004204,632.904358 120.534508,595.952820   C117.962593,574.690430 117.979378,553.348267 118.881363,532.105225   C120.942940,483.551727 131.469971,436.736786 151.265259,392.227173   C163.117493,365.577484 177.705017,340.419769 194.566910,316.620087   C201.879288,306.299072 209.406403,296.000824 218.445938,287.187775   C233.560059,272.452332 247.082733,256.045624 263.706970,242.912216   C277.009491,232.402985 290.772614,222.525787 305.594421,214.122696   C318.301117,206.918762 330.350525,198.571091 343.604767,192.295410   C360.277527,184.401154 377.437775,177.733917 394.915039,171.887741   C409.987946,166.845856 425.204193,161.958405 440.994720,160.058868   C456.932922,158.141617 472.732208,155.188766 488.854462,154.379944   C498.664368,153.887802 508.467529,153.473892 518.242249,153.755829   C538.937622,154.352753 559.566284,155.292267 580.056335,159.293243   C598.453491,162.885559 616.581055,167.174103 634.208191,173.434387   C654.681702,180.705566 674.833862,188.631470 693.993286,199.166946   C712.411499,209.294830 730.074951,220.526855 746.839966,233.042984   C767.662964,248.588638 786.188049,266.714447 803.851990,285.852631   C831.558472,315.871582 853.535400,349.563019 870.661560,386.447205   C888.232300,424.288605 899.541809,464.002350 904.419128,505.511414   C907.167664,528.903259 907.921814,552.350281 906.122620,575.807007   C901.336670,638.203857 883.946289,696.703735 851.196838,750.323547   C847.640686,756.145935 843.764954,761.773132 839.840698,767.792297  M546.086182,539.575500   C553.036194,537.870667 560.102783,536.537598 566.917114,534.400269   C609.632751,521.002441 643.081665,495.345154 666.899292,457.464355   C690.670837,419.656982 699.912048,378.427673 690.993774,334.555664   C678.997070,275.540222 643.826111,233.727066 590.309509,207.267242   C552.602844,188.624222 512.229797,185.968033 471.226135,190.564621   C424.761108,195.773438 381.399139,211.003525 340.860565,234.082596   C281.291290,267.996033 234.508408,314.977966 200.264740,374.262054   C172.822479,421.771271 157.775177,473.259857 154.563675,527.927979   C153.032486,553.992920 154.001343,580.120361 158.223282,606.085205   C164.980850,647.643921 178.629913,686.678955 199.527802,723.164856   C222.678482,763.583862 253.102036,797.714050 289.706940,826.413269   C327.612671,856.132507 369.254364,878.660156 415.728760,891.890503   C440.982391,899.079590 466.844727,902.638916 492.949585,904.536133   C500.496918,905.084656 508.117920,904.620361 515.705139,904.620361   C505.079285,902.925598 494.672424,900.825012 484.304993,898.365479   C473.905396,895.898438 463.803894,892.637451 453.857300,888.743286   C377.147369,858.710999 328.223602,776.401917 345.480530,691.017090   C360.840973,615.015686 419.323822,557.974792 495.737671,545.593323   C512.163757,542.931824 528.884155,542.836853 546.086182,539.575500  M434.158844,717.471252   C436.273132,733.834412 443.028809,748.532043 451.273346,762.470764   C469.477844,793.248291 492.372589,820.684204 513.943787,849.056946   C516.462830,852.370300 518.236755,851.615845 520.446106,848.685364   C533.081665,831.924988 545.945374,815.335510 558.493042,798.510071   C572.241028,780.075073 586.061584,761.635437 594.295288,739.836182   C600.326599,723.867798 603.622986,707.600586 599.639526,690.477783   C595.313538,671.882202 580.474548,659.064636 562.727478,658.942993   C546.743042,658.833374 532.614685,668.849976 526.156372,684.539673   C522.258423,694.009399 522.069824,704.010254 521.296265,713.948792   C520.967529,718.172241 519.083862,719.492615 515.125000,718.248291   C512.189453,717.325623 512.858826,714.881165 512.819641,712.850586   C512.609375,701.947021 511.384979,691.278015 506.755249,681.201721   C495.905762,657.588806 464.555481,651.199890 446.967712,669.286499   C434.042908,682.577942 431.510193,698.950500 434.158844,717.471252  z"></path>
<path fill="#000000" opacity="1.000000" stroke="none" d=" M562.825806,378.566315   C566.222107,391.681641 558.738525,405.533295 545.747925,410.649963   C543.120483,411.684875 540.349304,412.350586 537.659851,413.233673   C534.736145,414.193726 531.887878,415.421997 531.265259,418.850342   C530.588013,422.580200 531.824280,425.827728 534.804749,428.188721   C540.724548,432.878021 547.509766,433.482544 554.697083,432.246368   C557.234070,431.810028 559.679626,430.206177 563.308167,431.678772   C560.224487,439.475189 555.212708,445.361969 547.907166,448.999908   C538.910278,453.480072 529.673767,453.396088 521.354126,447.507507   C517.379517,444.694336 514.947083,445.114075 511.079773,447.701935   C494.506500,458.792023 474.223480,446.393036 470.678314,431.041138   C473.596527,430.382233 476.151550,431.946594 478.848236,432.336792   C485.118500,433.244171 491.205627,432.955322 496.697266,429.494141   C500.021942,427.398773 502.937836,424.589691 502.502289,420.258270   C502.049164,415.751984 498.479126,414.031525 494.563904,413.065826   C487.419464,411.303650 481.260590,408.012421 476.381134,402.330597   C465.960358,390.196259 466.663788,369.975403 487.182495,364.583099   C506.591980,359.482269 526.072754,359.501312 545.480347,364.294983   C553.169800,366.194275 559.601501,370.280640 562.825806,378.566315  z"></path>
<path fill="#000000" opacity="1.000000" stroke="none" d=" M472.738770,319.924103   C461.874756,325.856964 451.812897,324.251312 445.181885,315.794373   C439.167603,308.123993 439.464569,296.801666 445.869812,289.563812   C453.724731,280.687866 466.496979,280.125397 475.153717,288.274200   C484.083038,296.679565 484.283356,308.712555 475.623779,317.368225   C474.803162,318.188446 473.901276,318.927368 472.738770,319.924103  z"></path>
<path fill="#000000" opacity="1.000000" stroke="none" d=" M593.008179,301.332458   C592.880249,312.092010 586.854309,320.110962 577.172485,322.892456   C569.105286,325.210083 560.033081,321.625214 555.483398,314.321960   C548.905273,303.762665 552.401245,290.468414 563.260559,284.747437   C573.744263,279.224335 586.481079,284.162750 591.311096,295.678375   C592.015686,297.358368 592.415283,299.166260 593.008179,301.332458  z"></path>
<path fill="#000000" opacity="1.000000" stroke="none" d=" M500.046448,746.789795   C519.166931,743.536560 537.322693,745.026245 554.673218,753.090271   C563.875244,757.367065 564.025818,757.822205 558.231262,765.976929   C545.785461,783.491882 533.234924,800.932556 520.679932,818.369629   C517.414429,822.904907 516.877991,822.914917 513.610229,818.347961   C500.619873,800.193054 487.659851,782.016235 474.766052,763.792664   C470.853790,758.263184 471.075897,757.642273 476.978455,754.467529   C484.087524,750.643860 491.714844,748.326904 500.046448,746.789795  z"></path>
<path fill="#000000" opacity="1.000000" stroke="none" d=" M560.336060,715.012634   C552.569031,711.358337 548.896240,704.947388 550.402527,698.199707   C552.088257,690.648193 557.408447,686.038269 564.648071,685.856262   C571.670837,685.679626 577.936584,690.434143 579.730896,697.308594   C582.597473,708.291016 571.237793,718.577637 560.336060,715.012634  z"></path>
<path fill="#000000" opacity="1.000000" stroke="none" d=" M475.435364,687.162659   C482.068390,690.924377 485.643127,697.166138 484.632538,702.744507   C483.491791,709.040955 478.314575,714.278809 471.947906,715.339661   C466.221161,716.293884 461.282928,714.681458 457.880219,709.849976   C454.210114,704.638855 453.790558,699.052612 456.975647,693.373474   C459.984497,688.008545 464.738068,685.799622 470.702393,686.023193   C472.169739,686.078186 473.617096,686.665527 475.435364,687.162659  z"></path>
</svg><style>@media (prefers-color-scheme: light) { :root { filter: none; } }
</style></svg>