<?xml version="1.0" standalone="no"?>
<!DOCTYPE svg PUBLIC "-//W3C//DTD SVG 20010904//EN"
 "http://www.w3.org/TR/2001/REC-SVG-20010904/DTD/svg10.dtd">
<svg version="1.0" xmlns="http://www.w3.org/2000/svg"
 width="1024.000000pt" height="1024.000000pt" viewBox="0 0 1024.000000 1024.000000"
 preserveAspectRatio="xMidYMid meet">
<metadata>
Created by potrace 1.14, written by Peter Selinger 2001-2017
</metadata>
<g transform="translate(0.000000,1024.000000) scale(0.100000,-0.100000)"
fill="#000000" stroke="none">
<path d="M4830 8710 c-52 -5 -160 -18 -240 -29 -80 -12 -165 -23 -190 -26
-104 -13 -284 -61 -480 -127 -90 -30 -181 -64 -215 -78 -11 -5 -49 -21 -85
-35 -143 -57 -252 -111 -369 -182 -57 -35 -105 -63 -107 -63 -3 0 -23 -12 -47
-27 -23 -15 -57 -36 -76 -46 -39 -21 -218 -143 -331 -225 -115 -84 -557 -533
-671 -682 -162 -213 -314 -457 -421 -675 -27 -55 -62 -125 -77 -155 -44 -84
-145 -361 -190 -522 -115 -405 -158 -759 -148 -1213 10 -484 104 -919 297
-1379 272 -647 761 -1255 1345 -1673 318 -227 721 -429 1110 -557 668 -220
1411 -249 2096 -80 891 218 1700 753 2250 1487 420 560 659 1152 756 1867 26
191 26 757 0 939 -90 633 -300 1195 -634 1691 -188 280 -261 367 -513 621
-250 251 -345 329 -641 530 -212 144 -462 279 -654 353 -55 21 -112 45 -127
52 -15 7 -42 16 -60 19 -18 4 -37 11 -43 15 -34 24 -359 114 -520 144 -38 7
-81 16 -95 20 -126 31 -717 55 -920 36z m550 -355 c281 -48 521 -139 735 -280
295 -193 516 -440 660 -740 176 -365 216 -750 118 -1140 -140 -562 -552 -1031
-1092 -1245 -190 -75 -311 -100 -724 -145 -255 -28 -476 -92 -678 -197 -616
-321 -1003 -988 -975 -1683 7 -180 28 -298 81 -462 153 -467 481 -839 927
-1053 209 -100 500 -181 706 -196 50 -4 92 -11 92 -15 0 -15 -300 -10 -456 6
-181 19 -398 56 -535 90 -759 189 -1522 701 -2009 1346 -372 493 -580 998
-677 1644 -15 99 -18 182 -18 475 1 318 3 370 23 500 104 665 352 1231 768
1750 130 163 398 433 549 556 357 288 735 498 1146 638 248 84 501 140 744
165 135 14 502 6 615 -14z m-506 -4723 c163 -76 255 -252 256 -489 l0 -73 34
0 33 0 7 96 c3 52 11 119 17 147 79 372 516 484 711 183 126 -195 112 -454
-42 -771 -76 -158 -154 -274 -420 -625 -233 -309 -295 -389 -302 -389 -19 -2
-521 670 -627 841 -79 125 -165 313 -192 416 -26 97 -36 268 -20 343 14 69 60
166 102 219 40 49 122 107 180 126 73 23 183 13 263 -24z"/>
<path d="M4556 7420 c-80 -24 -146 -112 -146 -194 1 -141 147 -235 275 -177
130 59 160 216 61 315 -56 57 -122 76 -190 56z"/>
<path d="M5655 7416 c-86 -32 -146 -139 -126 -226 37 -164 227 -213 338 -87
64 73 68 163 10 239 -58 75 -141 103 -222 74z"/>
<path d="M5025 6633 c-79 -10 -179 -34 -214 -52 -194 -99 -119 -377 121 -445
103 -29 125 -97 54 -163 -56 -52 -141 -64 -259 -37 l-29 7 17 -32 c9 -18 32
-50 52 -72 100 -110 230 -128 351 -48 l43 29 39 -29 c50 -36 127 -55 187 -47
61 8 138 52 178 101 36 44 59 84 52 91 -2 2 -28 -1 -57 -7 -146 -31 -268 33
-258 135 3 35 27 50 133 87 151 53 234 225 170 350 -34 66 -131 110 -280 128
-86 10 -235 12 -300 4z"/>
<path d="M4623 3365 c-44 -19 -77 -84 -70 -141 9 -80 71 -131 149 -122 105 12
161 115 114 206 -33 65 -118 90 -193 57z"/>
<path d="M5573 3361 c-86 -54 -86 -189 0 -241 65 -40 155 -16 197 52 35 58 22
125 -34 177 -36 34 -118 40 -163 12z"/>
<path d="M5080 2783 c-164 -17 -370 -92 -356 -130 12 -31 436 -623 446 -623 4
1 248 341 402 562 l48 68 -38 25 c-111 73 -331 116 -502 98z"/>
</g>
</svg>
