<svg xmlns="http://www.w3.org/2000/svg" viewBox="118.33 153.66 788.77 788.59">
  <path d="M839.84 767.8C794.4 833.56 735 881.55 661.64 912.34a385.4 385.4 0 0 1-100 26.76c-43.17 5.6-86.05 3.66-128.6-5.37-59.28-12.59-112.97-37.52-161.04-74.28-54.43-41.62-95.3-94.1-122.77-156.86-14.92-34.06-24.23-69.7-28.7-106.65-2.57-21.26-2.55-42.6-1.65-63.84 2.06-48.56 12.59-95.37 32.39-139.88a440.13 440.13 0 0 1 43.3-75.61c7.3-10.32 14.84-20.62 23.88-29.43 15.11-14.74 28.63-31.14 45.26-44.28 13.3-10.5 27.06-20.38 41.88-28.79 12.71-7.2 24.76-15.55 38.01-21.82a462.33 462.33 0 0 1 51.32-20.41c15.07-5.04 30.28-9.93 46.07-11.83 15.94-1.92 31.74-4.87 47.86-5.68 9.81-.5 19.62-.9 29.4-.62 20.69.6 41.32 1.53 61.8 5.53 18.4 3.6 36.53 7.88 54.16 14.14 20.47 7.28 40.62 15.2 59.78 25.74a453.02 453.02 0 0 1 52.85 33.87c20.82 15.55 39.35 33.67 57.01 52.81 27.7 30.02 49.69 63.71 66.81 100.6a388.88 388.88 0 0 1 33.76 119.06c2.75 23.4 3.5 46.84 1.7 70.3-4.78 62.4-22.17 120.9-54.92 174.51-3.56 5.83-7.44 11.45-11.36 17.47M546.1 539.58c6.95-1.7 14.01-3.04 20.83-5.18 42.71-13.4 76.16-39.05 99.98-76.94 23.77-37.8 33.01-79.03 24.1-122.9-12-59.02-47.17-100.83-100.69-127.3-37.7-18.64-78.08-21.3-119.08-16.7-46.47 5.21-89.83 20.44-130.37 43.52-59.57 33.92-106.35 80.9-140.6 140.18-27.44 47.51-42.48 99-45.7 153.67-1.53 26.06-.56 52.19 3.66 78.16 6.76 41.55 20.41 80.59 41.3 117.07 23.16 40.42 53.58 74.55 90.19 103.25 37.9 29.72 79.54 52.25 126.02 65.48 25.25 7.19 51.11 10.75 77.22 12.65 7.55.54 15.17.08 22.76.08a427 427 0 0 1-31.4-6.25 227.28 227.28 0 0 1-30.45-9.63c-76.71-30.03-125.64-112.34-108.38-197.72 15.36-76 73.84-133.05 150.26-145.43 16.42-2.66 33.14-2.75 50.35-6.01m-111.93 177.9c2.11 16.35 8.87 31.05 17.11 45 18.2 30.77 41.1 58.2 62.67 86.58 2.52 3.31 4.3 2.56 6.5-.37 12.64-16.77 25.5-33.35 38.05-50.18 13.75-18.43 27.57-36.87 35.8-58.67 6.04-15.97 9.33-32.24 5.35-49.36-4.33-18.6-19.17-31.42-36.91-31.54-15.99-.1-30.12 9.91-36.57 25.6-3.9 9.47-4.09 19.47-4.86 29.4-.33 4.23-2.22 5.55-6.17 4.3-2.94-.91-2.27-3.36-2.31-5.39-.21-10.9-1.44-21.57-6.06-31.65-10.85-23.61-42.2-30-59.8-11.91-12.92 13.29-15.45 29.66-12.8 48.18z"/>
  <path d="M562.83 378.57c3.4 13.11-4.1 26.96-17.08 32.08-2.63 1.03-5.4 1.7-8.09 2.58-2.92.96-5.77 2.2-6.4 5.62a9.24 9.24 0 0 0 3.54 9.34c5.92 4.69 12.71 5.3 19.9 4.06 2.53-.44 4.98-2.04 8.6-.57-3.08 7.8-8.09 13.68-15.4 17.32-8.99 4.48-18.23 4.4-26.55-1.5-3.97-2.8-6.4-2.39-10.27.2-16.57 11.1-36.86-1.3-40.4-16.66 2.92-.66 5.47.9 8.17 1.3 6.27.9 12.36.62 17.85-2.85 3.32-2.1 6.24-4.9 5.8-9.23-.45-4.5-4.02-6.23-7.94-7.2-7.14-1.76-13.3-5.05-18.18-10.73-10.42-12.13-9.72-32.35 10.8-37.75 19.41-5.1 38.9-5.08 58.3-.29 7.69 1.9 14.12 6 17.35 14.28zm-90.09-58.65c-10.87 5.94-20.93 4.33-27.56-4.13-6.01-7.67-5.72-18.99.69-26.23 7.85-8.87 20.63-9.43 29.28-1.29 8.93 8.41 9.13 20.44.47 29.1-.82.82-1.72 1.56-2.88 2.55zM593 301.33c-.12 10.76-6.15 18.78-15.83 21.56-8.06 2.32-17.14-1.26-21.69-8.57-6.57-10.56-3.08-23.85 7.78-29.57 10.48-5.53 23.22-.59 28.05 10.93.7 1.68 1.1 3.49 1.7 5.65zm-92.95 445.46c19.12-3.25 37.27-1.76 54.62 6.3 9.2 4.28 9.36 4.73 3.56 12.89-12.44 17.51-25 34.95-37.55 52.39-3.27 4.53-3.8 4.54-7.07-.02a12618.4 12618.4 0 0 1-38.84-54.56c-3.92-5.53-3.7-6.15 2.2-9.32 7.12-3.83 14.74-6.14 23.08-7.68zm60.29-31.78c-7.77-3.65-11.44-10.06-9.94-16.81 1.69-7.55 7-12.16 14.25-12.34a15.27 15.27 0 0 1 15.08 11.45c2.87 10.98-8.5 21.27-19.4 17.7zm-84.9-27.85c6.63 3.76 10.2 10 9.2 15.58a15.79 15.79 0 0 1-12.7 12.6c-5.72.95-10.66-.66-14.06-5.49-3.67-5.21-4.09-10.8-.9-16.48 3-5.36 7.76-7.57 13.72-7.35 1.47.06 2.92.65 4.74 1.14z"/>
</svg>
