<svg xmlns="http://www.w3.org/2000/svg" xml:space="preserve" width="96px" height="96px" viewBox="0 0 1024 1024">
  <path d="M489.825 114.669c46.096-2.918 90.528 3.77 133.907 17.477 35.612 11.253 68.895 27.578 100.002 48.337 39.795 26.556 73.395 59.56 102.004 97.734 23.553 31.427 41.391 65.91 54.79 102.823 9.929 27.357 16.815 55.423 20.439 84.214a371.744 371.744 0 0 1 1.574 78.212c-3.059 35.888-10.457 70.736-22.908 104.486-15.31 41.497-37.262 79.217-65.742 113.052-29.076 34.543-62.457 64.172-101.334 87.386-40.092 23.939-82.748 41.495-128.66 50.437-43.827 8.535-87.848 9.729-132.145 2.877-67.309-10.412-128.057-36.374-181.904-77.594-70.757-54.163-118.926-124.218-142.55-210.49-8.38-30.605-12.376-61.823-12.883-93.688-.915-57.548 10.118-112.55 32.828-165.215 22.28-51.665 54.534-96.431 95.806-134.631 49.27-45.603 106.643-76.506 171.5-93.555 24.52-6.445 49.434-10.646 75.276-11.862M230.92 286.394c-9.026 10.934-17.252 22.455-24.915 34.37-33.308 51.798-51.583 108.627-55.445 169.926-1.316 20.891-.891 41.916 1.573 62.848 2.969 25.21 8.138 49.904 16.475 73.852 20.499 58.876 54.438 108.742 101.408 149.715 41.89 36.542 89.051 63.63 142.681 78.94 26.215 7.485 53.1 10.949 80.241 12.577 5.996.36 12.032.053 18.05.053-.575-1.012-1.175-1.217-1.79-1.288-30.661-3.56-59.519-12.572-86.128-28.415-63.33-37.705-97.18-114.643-80.479-186.504 17.709-76.201 64.844-124.21 141.466-142.32 16.564-3.915 33.665-3.94 50.442-6.394 49.887-7.297 90.401-30.663 120.64-71.05 28.4-37.933 41.23-80.758 34.095-127.799-9.127-60.178-42.961-103.7-95.985-132.433-39.298-21.296-81.854-24.707-125.322-19.902-45.951 5.08-88.851 20.086-129.097 42.634-41.604 23.309-77.393 53.612-107.91 91.19m326.26 473.327c1.877-2.547 3.767-5.085 5.629-7.643 12.782-17.564 24.614-35.666 31.036-56.693 4.54-14.87 6.685-29.953 1.52-45.094-4.81-14.102-13.7-24.628-28.913-27.589-15.456-3.008-28.134 2.614-37.963 14.767-4.822 5.962-7.375 12.966-9.11 20.332-1.577 6.695-1.15 13.575-1.866 20.352-.38 3.599-2.079 3.976-4.968 3.643-3.206-.369-2.813-2.695-2.897-4.833-.434-11.01-1.325-21.897-6.047-32.143-12.31-26.711-47.195-30.967-64.37-7.706-8.884 12.033-11.137 25.746-9.456 40.296 2.575 22.29 12.641 41.617 24.647 59.953 16.983 25.938 36.329 50.172 55.325 74.644 1.105 1.423 2.119 3.021 5.111 3.542l42.322-55.828z"/>
  <path d="M545.919 395.693c4.79.26 8.789-1.938 14.108-2.094-3.22 8.474-8.229 14.68-15.779 18.202-11.199 5.224-21.74 3.393-31.324-5.104-8.706 7.767-18.624 10.2-29.496 5.684-8.218-3.412-13.41-9.89-16.719-18.498 3.404-.441 6.007.886 8.718 1.342 6.107 1.029 11.975.59 17.388-2.607 3.764-2.222 6.693-5.285 6.197-10.007-.483-4.608-4.413-6.099-8.12-7.07-6.618-1.733-12.451-4.576-17.103-9.711-5.73-6.325-8.164-13.743-6.927-22.11 1.06-7.17 5.498-11.905 12.113-14.735 7.304-3.126 15.071-4.317 22.849-4.909 13.657-1.039 27.337-.781 40.624 3.06 12.77 3.691 19.488 12.693 17.644 23.576-1.831 10.811-7.859 18.552-18.197 22.63-2.626 1.035-5.388 1.72-8.055 2.657-3.052 1.072-6.054 2.374-6.458 6.132-.405 3.769 1.1 6.902 4.092 9.151 4.12 3.098 8.815 4.602 14.445 4.411zM439.3 274.255c-4.17-13.562.708-24.394 12.39-28.237 10.117-3.328 21.326 2.21 25.076 12.39 3.78 10.265-1.047 21.531-11.005 25.683-10.5 4.378-20.089.926-26.46-9.836zm127.141-29.295c12.116-.393 21.85 7.83 22.854 18.885.95 10.46-6.706 19.766-17.832 21.68-9.393 1.615-18.57-4.214-21.595-13.716-3.106-9.761 1.501-20.784 10.484-24.869 1.805-.821 3.773-1.287 6.09-1.98zm-88.778 491.326c-2.54-3.737-4.668-7.347-7.279-10.566-2.764-3.407-1.382-5.12 1.78-6.916 8.535-4.845 17.774-7.485 27.39-8.815 17.83-2.466 35.171-.868 51.669 6.867a45.91 45.91 0 0 1 3.1 1.612c5.38 3.04 5.536 3.431 2.063 8.333-13.18 18.601-26.412 37.168-39.642 55.734-.752 1.056-1.335 2.348-3.644 2.873-12.203-15.656-23.339-32.523-35.437-49.122zm69.282-70.57c.366-10.455 6.443-16.778 15.245-16.329 8.965.457 14.832 7.297 14.117 16.456-.546 6.994-6.393 12.492-14.037 13.2-7.19.667-12.988-4.236-15.325-13.327zM468.6 649.724c9.223 2.68 14.103 10.015 12.038 17.5-2.24 8.125-10.194 13.142-17.907 11.297-7.554-1.808-11.816-7.974-11.064-16.01.678-7.234 6.155-12.46 13.517-12.867.993-.055 1.993.019 3.416.08z"/>
</svg>
